<?xml version="1.0" encoding="UTF-8" standalone="no"?>
<!DOCTYPE svg PUBLIC "-//W3C//DTD SVG 1.1//EN" "http://www.w3.org/Graphics/SVG/1.1/DTD/svg11.dtd">
<svg width="100%" height="100%" viewBox="0 0 2496 2582" version="1.1" xmlns="http://www.w3.org/2000/svg" xmlns:xlink="http://www.w3.org/1999/xlink" xml:space="preserve" xmlns:serif="http://www.serif.com/" style="fill-rule:evenodd;clip-rule:evenodd;stroke-linejoin:round;stroke-miterlimit:2;">
    <g transform="matrix(1,0,0,1,-754.736,-709.326)">
        <path d="M1171.3,1597.73C1118.12,1589.6 1072.57,1550.05 1059.57,1494.55L1034.01,1385.46C1017.02,1312.95 1061.92,1240.14 1134.18,1222.67C1144.79,1124.37 1180.8,1030.07 1240.31,947.809C1330.47,823.174 1463.78,741.111 1615.66,716.736C1767.56,692.356 1919.83,728.59 2044.47,818.757C2104,861.821 2153.81,914.725 2192.28,974.802C2264.68,958.504 2337.16,1003.76 2354.13,1076.21L2379.69,1185.3C2396.52,1257.16 2352.58,1329.32 2281.44,1347.61C2275.48,1408.73 2258.54,1468.86 2230.93,1525.79C2229.14,1529.49 2226.97,1533.42 2224.45,1537.53C2213.38,1560.17 2200.85,1582.05 2186.97,1603.01C2241.07,1646.29 2275.78,1712.86 2275.78,1787.38L2275.78,1834.49C2277.05,1836.79 2278.28,1839.11 2279.48,1841.45C2299.99,1880.15 2317.45,1920.61 2331.25,1962.47C2339.25,1986.95 2345.85,2012.02 2350.51,2037.53C2467.52,1879.85 2547.47,1696.47 2583.44,1498.11C2614.33,1327.78 2611.35,1156.44 2574.59,988.85C2566.36,951.339 2582.01,913.631 2614.45,892.786C2646.96,871.901 2687.84,873.358 2718.61,896.481C2911.5,1041.49 3061.61,1236.5 3152.69,1460.43C3246.25,1690.49 3273.16,1941.98 3230.49,2187.74C3169.69,2537.91 2975.19,2843.63 2682.8,3048.58C2455.87,3207.66 2191.96,3290.59 1921.61,3290.59C1843.74,3290.59 1765.36,3283.71 1687.14,3269.79C1299.16,3200.74 963.804,2965.08 767.056,2623.22C747.871,2589.88 751.314,2549.23 775.835,2519.65C800.562,2489.82 840.23,2478.81 876.914,2491.62C939.57,2513.49 1004.66,2530.74 1070.36,2542.87C1134.79,2554.77 1199.37,2561.77 1263.68,2563.96C1253.31,2544.56 1243.56,2524.26 1235.02,2503.37C1225.91,2481.08 1218.61,2459.1 1213.33,2438.04C1197.96,2376.61 1199.07,2320.69 1216.63,2271.86C1221.32,2258.85 1226.72,2246.84 1232.69,2235.74L1232.69,2194.04C1196.62,2125.54 1196.4,2025.86 1232.69,1919.23L1232.69,1883.08C1163.77,1799.57 1145.87,1678.13 1171.3,1597.73ZM1866.37,3215.4L1866.12,3215.25L1867.48,3216.03L1873.56,3219.47L1875.67,3220.62L1881.04,3223.47L1883.24,3224.6L1888.67,3227.29L1890.58,3228.22L1896.87,3231.12L1897.77,3231.53C1910.43,3237.14 1922.59,3241.47 1933.65,3244.45C1958.22,3251.07 1980.77,3254.98 2001.57,3256.13C1899.45,3262.49 1795.92,3256.69 1692.73,3238.33C1472.7,3199.16 1270,3105.09 1101.1,2967.66L1101.05,2967.62L1100.42,2967.1L1090.1,2958.61L1086.29,2955.41L1084.67,2954.07L1082.85,2952.51L1078.22,2948.61L1070.05,2941.55L1068.51,2940.24L1067.97,2939.76L1070.05,2941.55L1082.85,2952.51L1086.29,2955.41L1100.42,2967.1L1101.1,2967.66C1260.95,3089.09 1451.11,3175.57 1662.21,3213.61C1740.93,3227.78 1819.31,3234.63 1896.57,3234.63C1899.36,3234.63 1902.18,3234.62 1904.96,3234.61C1902.58,3233.63 1900.18,3232.61 1897.77,3231.53L1897.59,3231.45L1896.87,3231.12L1892.07,3228.93L1890.58,3228.22L1889.9,3227.9L1888.67,3227.29L1885.5,3225.76L1883.24,3224.6L1882.11,3224.04L1881.04,3223.47L1878.88,3222.37L1875.67,3220.62L1874.26,3219.87L1873.56,3219.47L1872.22,3218.75L1867.48,3216.03L1866.37,3215.4ZM2058.54,3251.3C2083.94,3244.93 2106.22,3232.65 2126.17,3214.28C2651.65,3120.36 3088.12,2709.43 3188.27,2153.35C3219.39,1980.71 3215.19,1809.86 3180.9,1648.28C3223.13,1819.65 3230.48,2000.98 3199,2182.27C3139.67,2524.01 2949.83,2822.37 2664.45,3022.41C2481.5,3150.66 2273.95,3228.19 2058.54,3251.3ZM1830.64,2695.16C1900.56,2760.24 1991.05,2786.99 2069.33,2786.99C2091.6,2786.99 2112.9,2784.82 2132.43,2780.75C2158.2,2775.39 2180.56,2766.83 2198.63,2755.71C2149.09,2894.84 2069.46,2998.69 2068.37,3000.09C2063.59,3006.25 2063.96,3014.96 2069.22,3020.7C2095.17,3048.98 2155.07,3131.48 2121.15,3173.01C2079.44,3224.05 2025.86,3236.18 1941.97,3213.59C1879.3,3196.7 1777.24,3132.02 1770.13,3030.43C1766.8,2982.64 1786.09,2898.02 1804.76,2816.19C1814.09,2775.26 1823.56,2733.73 1830.64,2695.16ZM2163.1,3148.23C2163.82,3135.89 2162.04,3123.19 2158.63,3110.66C2159.89,3110.41 2161.15,3110.15 2162.41,3109.88C2164.64,3109.38 2166.21,3107.26 2165.92,3104.95C2165.61,3102.49 2163.37,3100.75 2160.92,3101.06C2159.24,3101.26 2157.56,3101.45 2155.88,3101.63C2142.79,3062.48 2115.55,3026.24 2101.46,3009.17C2120.67,2982.7 2170.59,2909.62 2211.02,2813.1C2210.68,2813.91 2210.35,2814.71 2210.01,2815.52C2282.16,2808.21 2345.08,2829.24 2369.41,2874.96C2375.29,2886.01 2378.54,2897.81 2379.38,2910.01C2379.36,2910.6 2379.32,2911.19 2379.29,2911.78C2378.03,2933.98 2371.14,2956.03 2360.44,2976.29L2360.4,2976.37C2359.07,2978.89 2359.88,2982.05 2362.33,2983.62C2364.91,2985.27 2368.34,2984.51 2370,2981.93C2376.54,2971.7 2382.35,2960.86 2386.77,2949.34C2391.2,2937.84 2394.26,2925.71 2395.88,2913.31C2399.03,2888.47 2395.25,2862.56 2385.23,2839.2C2375.06,2815.87 2358.85,2795.45 2339.56,2779.37C2320.19,2763.31 2298.06,2750.99 2274.84,2742.23C2263.62,2737.9 2252.13,2734.42 2240.47,2731.69C2253.4,2689.07 2263.16,2643.73 2267.22,2597.11C2272.7,2534.23 2269,2482.84 2262.51,2443.68C2271.1,2419.22 2275.78,2392.94 2275.78,2365.59L2275.78,2316.82C2286.92,2307.88 2297.53,2298.01 2307.08,2286.92C2314.81,2278.19 2321.5,2268.45 2327.55,2258.36C2333.57,2248.22 2338.29,2237.36 2342.35,2226.32L2344.96,2217.91C2345.85,2215.09 2346.68,2212.29 2347.21,2209.55L2350.88,2193.01L2352.68,2184.74L2353.81,2176.37L2356.04,2159.64L2356.59,2155.45L2357.25,2142.85L2358.11,2126.05C2358.03,2114.88 2357.6,2103.71 2357.33,2092.55C2357.12,2089.14 2356.86,2085.74 2356.57,2082.35C2487.16,1915.16 2576.05,1718.01 2614.89,1503.82C2646.53,1329.3 2643.48,1153.74 2605.81,982.005C2599.34,952.486 2614.95,930.452 2631.73,919.675C2648.56,908.873 2675.17,903.812 2699.4,922.028C2845.63,1031.95 2963.95,1168.08 3050.44,1320.6C3062.55,1357.45 3073.05,1394.93 3081.88,1432.96C3121.14,1601.82 3127.44,1781.23 3094.73,1962.72C3070.28,2098.48 3025.77,2225.62 2964.82,2341.58C2947.6,2309.52 2918.68,2283.9 2884.9,2273.13C2882.79,2272.46 2880.42,2273.37 2879.36,2275.39C2878.17,2277.66 2879.05,2280.47 2881.32,2281.66C2890.62,2286.54 2899.31,2292.32 2907.26,2298.87C2914.97,2305.73 2922.44,2312.77 2928.55,2320.92C2941.18,2336.82 2949.99,2355.38 2954.9,2374.85C2959.71,2394.36 2960.92,2414.77 2958.33,2434.78C2956.09,2454.85 2950.07,2474.43 2941.5,2492.81C2924.45,2529.72 2895.63,2561.23 2860.6,2582.56C2825.48,2603.79 2783.32,2614.34 2741.21,2608.99L2741.14,2608.98C2739.35,2608.75 2737.6,2609.85 2737.08,2611.64C2736.51,2613.63 2737.65,2615.7 2739.63,2616.27C2748.45,2618.82 2757.53,2620.6 2766.74,2621.6C2678.4,2717.02 2576.46,2798.72 2464.67,2864.14C2464.68,2864.21 2464.7,2864.28 2464.71,2864.36C2462.4,2864.69 2460.72,2866.76 2460.89,2869.12L2460.89,2869.15C2463.67,2905.85 2454.93,2942.23 2437.99,2974.08C2421.24,3006.11 2397.05,3033.88 2369.46,3057.3C2341.65,3080.53 2310.47,3099.85 2277.2,3114.52C2244.01,3129.33 2208.98,3140.18 2173.13,3146.51C2169.79,3147.12 2166.45,3147.69 2163.1,3148.23ZM1737.82,3022.46L1738.25,3032.66L1739.27,3043.03L1739.18,3042.42C1682.72,3039.67 1625.79,3033.24 1568.67,3022.95C1549.72,3019.53 1530.93,3015.72 1512.32,3011.54C1546.32,3014.21 1580.54,3006.87 1612.69,2989.52C1674.87,2955.96 1718.26,2891.09 1725.93,2820.25C1738.26,2706.3 1734.95,2647.58 1720.82,2601.62L1810.17,2601.62C1808.68,2655.26 1790.89,2733.24 1773.59,2809.08C1754.79,2891.56 1736.96,2969.74 1737.82,3022.46ZM1442.07,2366.72C1462.76,2366.79 1482.89,2370.19 1501.29,2377.05C1530.78,2388.05 1554.56,2402.24 1573.54,2417.06L1574.66,2417.94L1576.09,2419.08L1577.34,2420.09L1578.6,2421.12C1599.29,2438.16 1613.85,2455.74 1623.65,2470.05L1623.93,2470.45L1624.3,2471.63C1628.03,2483.68 1632.6,2495.29 1637.92,2506.47C1643.39,2517.67 1649.09,2528.24 1656.49,2538.84L1656.5,2538.85C1664.41,2553.01 1670.93,2564.81 1676.58,2576.57C1700.15,2625.82 1709.34,2676.5 1694.16,2816.81C1687.7,2876.44 1649.77,2933.18 1597.51,2961.39C1552.43,2985.72 1502.4,2986.21 1456.65,2962.79C1357.12,2911.85 1422.78,2746.83 1423.45,2745.18C1425.83,2739.35 1424.56,2732.66 1420.21,2728.11C1419.18,2727.03 1316.83,2618.99 1264.6,2491.27C1263.59,2488.8 1262.61,2486.34 1261.65,2483.89C1269.55,2450.95 1294.96,2419.78 1332.66,2397.26C1366.3,2377.16 1404.71,2366.72 1441.4,2366.72L1442.07,2366.72ZM1282.07,2596.43C1325.02,2668.29 1372.66,2723.35 1390.23,2742.75C1388.9,2746.51 1387.3,2751.25 1385.58,2756.8C1363.43,2743.59 1338.61,2734.93 1313.21,2730.06C1299.41,2727.21 1285.29,2726.09 1271.13,2725.44C1256.93,2725.3 1242.67,2726.25 1228.47,2728.59C1214.3,2731.13 1200.23,2735.2 1186.75,2741.46C1173.36,2747.73 1160.25,2756.26 1150.01,2768.75C1147.48,2771.82 1145.19,2775.16 1143.19,2778.72C1143.03,2778.96 1142.89,2779.21 1142.74,2779.45C1136.93,2788.95 1134.25,2798.93 1134.38,2809.01L1134.38,2808.98C1134.3,2810.93 1134.31,2812.87 1134.42,2814.82C1135.2,2831.68 1142.32,2847.03 1151.71,2859.07C1161.13,2871.26 1172.6,2880.96 1184.71,2889.12C1196.86,2897.28 1209.77,2903.97 1223.22,2908.96C1229.84,2911.77 1236.75,2913.62 1243.53,2915.88C1250.45,2917.54 1257.27,2919.67 1264.29,2920.82L1274.75,2922.8L1285.31,2924.11C1288.82,2924.6 1292.35,2924.91 1295.9,2925.07L1306.51,2925.71C1320.69,2925.91 1334.9,2925.5 1348.95,2923.26C1358.77,2921.65 1368.53,2919.52 1378.08,2916.59C1382.62,2930.31 1389.17,2943.4 1398.26,2955.27C1382.04,2958.62 1365.44,2960.59 1348.8,2961.73C1326.09,2963.11 1303.18,2962.82 1280.29,2960.86C1274.56,2960.41 1268.86,2959.69 1263.12,2959.17C1257.71,2958.35 1252.18,2957.06 1246.65,2955.68C1235.6,2952.86 1224.59,2949.39 1213.75,2945.49C1192.08,2937.6 1170.9,2928.15 1151.03,2916.54C1131.23,2904.9 1112.53,2891.22 1097.04,2874.56C1081.65,2857.95 1069.54,2838.04 1064.91,2815.83C1064.4,2813.44 1062.09,2811.82 1059.65,2812.21C1058.84,2812.34 1058.11,2812.67 1057.51,2813.15C955.925,2743.29 865.312,2659.8 787.89,2565.84C790.042,2555.75 794.791,2546.86 800.44,2540.05C813.272,2524.58 837.349,2511.64 866.377,2521.79C930.572,2544.2 997.252,2561.87 1064.56,2574.3C1137.04,2587.69 1209.73,2595.03 1282.07,2596.43ZM1382.44,2767.48C1373.15,2800.8 1363.21,2852.99 1373.72,2900.7C1368.63,2901.88 1363.47,2902.85 1358.28,2903.62C1353.54,2903.93 1348.84,2904.08 1344.2,2904.08C1318.33,2904.08 1294.4,2899.42 1275.33,2891.3L1274.75,2891.05C1274.02,2890.73 1273.29,2890.41 1272.57,2890.08L1272.18,2889.9L1270.92,2889.31L1269.35,2888.55L1268.4,2888.08L1267.23,2887.48L1265.7,2886.67L1264.84,2886.2L1263.69,2885.56L1262.57,2884.91C1262.01,2884.58 1261.45,2884.24 1260.9,2883.91L1260.31,2883.54L1259.22,2882.85C1258.54,2882.42 1257.87,2881.98 1257.22,2881.53L1257.08,2881.44L1256.01,2880.7C1255.25,2880.16 1254.5,2879.61 1253.77,2879.06L1253.6,2878.93L1252.62,2878.17C1252.03,2877.71 1251.45,2877.24 1250.88,2876.76L1250.35,2876.31L1249.43,2875.52C1249.01,2875.15 1248.6,2874.78 1248.19,2874.4L1247.55,2873.8L1246.61,2872.89L1245.9,2872.18L1245.31,2871.57L1244.55,2870.76L1243.65,2869.76L1243,2869.01L1242.19,2868.04L1241.46,2867.12L1240.86,2866.34L1240.65,2866.05L1240.16,2865.38L1239.49,2864.42C1239.23,2864.04 1238.97,2863.65 1238.72,2863.26L1238.34,2862.65L1237.76,2861.69C1237.37,2861.04 1237,2860.38 1236.65,2859.71L1236.24,2858.89C1235.9,2858.22 1235.58,2857.54 1235.28,2856.86L1235.18,2856.62L1234.93,2856.02C1234.65,2855.34 1234.38,2854.65 1234.14,2853.95L1233.92,2853.3L1233.59,2852.25C1233.46,2851.83 1233.34,2851.41 1233.22,2850.99L1233.05,2850.29L1232.82,2849.34L1232.62,2848.38C1225.31,2811.19 1273.82,2775.27 1340.96,2768.15L1341.75,2768.07C1355.73,2766.64 1369.42,2766.57 1382.38,2767.7L1382.44,2767.48ZM1592.7,2195.12C1600.42,2202.44 1607.69,2210.3 1614.54,2218.51C1637.81,2246.83 1656.56,2279.58 1672.92,2313.89C1689.42,2348.25 1702.55,2384.52 1717.28,2420.75L1717.35,2420.93C1718.26,2423.16 1720.59,2424.57 1723.08,2424.2C1726.01,2423.78 1728.03,2421.06 1727.61,2418.13C1726.18,2408.39 1724.62,2398.64 1722.85,2388.92L1720.17,2374.33L1716.66,2359.9C1715.19,2354.11 1713.75,2348.31 1712.23,2342.53L1830.69,2342.53C1827.19,2361.42 1824.86,2380.58 1824.47,2399.85C1824.07,2405.46 1824.35,2411.09 1824.37,2416.7C1824.42,2422.33 1824.46,2427.95 1824.99,2433.55C1825.44,2439.18 1825.7,2444.71 1826.33,2450.43C1827.07,2456.23 1827.8,2462.03 1829.11,2467.82C1833.67,2490.89 1843.9,2514.31 1860.89,2532.64C1877.74,2551.12 1900.24,2563.2 1922.89,2569.73C1945.69,2576.36 1968.86,2578.29 1991.52,2577.89C2002.86,2577.66 2014.11,2576.81 2025.26,2575.48C2030.84,2574.84 2036.38,2574 2041.92,2573.13L2051.03,2571.06C2054.06,2570.29 2057.12,2569.81 2060.08,2568.51L2068.99,2565.06C2072,2564.02 2074.69,2562.09 2077.54,2560.61C2083.35,2557.72 2088.26,2553.43 2093.36,2549.47C2102.79,2540.72 2110.72,2530.61 2116.49,2519.81C2128.01,2498.19 2133.42,2475.45 2137.32,2453.67C2139.31,2442.74 2140.83,2431.93 2142.48,2421.5L2143.09,2417.58L2143.24,2416.61L2143.41,2416L2143.72,2414.78C2143.96,2413.11 2144.72,2411.53 2145.33,2409.91C2146.01,2408.29 2147,2406.7 2147.94,2405.07C2149.18,2403.5 2150.06,2401.83 2151.59,2400.28C2157.04,2393.9 2164.6,2387.87 2172.85,2382.24C2181.14,2376.6 2190.13,2371.26 2199.31,2365.92C2201.41,2364.7 2203.53,2363.48 2205.65,2362.26C2207.47,2365.86 2214.44,2380.38 2221.37,2405.14C2231.98,2443.04 2243.02,2506.63 2235.39,2594.33C2231.97,2633.55 2224.15,2672.07 2213.68,2708.83C2198.38,2730.71 2167.54,2747.9 2127.33,2756.28C2041.63,2774.12 1919.64,2752.47 1835.73,2665.1C1841.57,2627.01 1844.11,2593.15 1840.54,2567.48C1837.23,2543.64 1829.03,2527.34 1815.46,2517.64C1802.37,2508.27 1779.79,2505.23 1756,2505.23C1723.25,2505.23 1688.2,2510.99 1672.41,2513.94C1670.44,2509.04 1667.89,2503.38 1665.08,2497.46C1665.17,2495.83 1664.94,2494.16 1664.36,2492.53C1663.77,2490.91 1657.37,2473.65 1641.07,2450.93C1640.31,2449.55 1639.89,2448.78 1639.89,2448.78C1639.89,2448.78 1639.7,2435.11 1635.31,2390.89C1634.11,2390.28 1632.83,2389.98 1631.56,2389.98C1628.69,2389.98 1625.9,2391.5 1624.4,2394.19C1619.5,2403 1617.5,2412.65 1616.96,2422.14C1612.74,2417.8 1608.18,2413.41 1603.27,2409.02L1602.82,2408.62L1601.57,2407.53L1600.44,2406.54L1599.43,2405.67C1596.94,2403.53 1594.36,2401.39 1591.69,2399.26L1590.97,2398.69L1590.22,2398.11L1588.82,2397.01L1587.46,2395.97C1582.56,2392.22 1577.38,2388.51 1571.9,2384.88L1571.9,2384.89C1554.43,2373.32 1533.95,2362.54 1510.03,2353.62C1451.88,2331.93 1379.01,2340.43 1319.84,2375.8C1287.88,2394.9 1263.48,2419.8 1249.02,2447.33C1247.34,2441.68 1245.8,2436.09 1244.41,2430.57L1244.34,2430.28C1239.7,2411.58 1236.44,2392.58 1235.15,2373.62L1235.11,2372.96C1234.47,2363.08 1234.37,2353.43 1234.83,2344.02C1235.01,2340.23 1235.29,2336.44 1235.67,2332.67C1237.2,2316.55 1240.55,2300.74 1245.76,2285.58C1248.44,2278.01 1251.95,2270.61 1254.96,2263.1C1256.33,2259.26 1258.61,2255.89 1260.48,2252.31L1266.32,2241.69C1266.65,2241.13 1266.98,2240.57 1267.32,2240.02C1297.87,2268.68 1337.75,2283.46 1383.63,2283.46C1401.84,2283.46 1421,2281.13 1440.89,2276.42C1514.42,2258.99 1562.08,2228.92 1592.7,2195.12ZM1808.55,2569.66L1708.62,2569.66C1707.58,2567.36 1706.5,2565.05 1705.4,2562.75C1702.19,2556.06 1698.78,2549.46 1695.04,2542.55C1734.2,2536.68 1783.19,2533.84 1796.87,2543.63C1802.44,2547.62 1806.46,2556.59 1808.55,2569.66ZM2767.09,2324.45C2782.02,2317.17 2797.88,2313.26 2813.62,2313.26C2826.31,2313.26 2838.93,2315.8 2850.92,2321.15C2854.78,2322.87 2858.46,2324.84 2861.98,2327.03C2862.63,2327.88 2863.27,2328.73 2863.91,2329.58C2869.47,2332.76 2874.72,2336.5 2879.47,2340.76C2889.89,2349.64 2898.6,2360.67 2904.79,2372.95C2916.79,2397.77 2918.94,2426.27 2912.91,2452.31C2900.65,2504.57 2857.68,2547.27 2805.73,2558.32C2795.47,2560.52 2784.83,2561.38 2774.28,2560.79C2769.86,2562.22 2765.33,2563.63 2760.69,2565C2756.09,2563.78 2751.54,2562.17 2747.09,2560.18C2738.05,2556.14 2729.94,2550.76 2722.83,2544.3C2713.77,2538.34 2705.72,2530.96 2699.26,2522.42C2691.31,2512.13 2685.83,2500.23 2682.71,2487.99C2682.21,2485.99 2683.42,2483.96 2685.41,2483.45C2687.25,2482.99 2689.11,2483.98 2689.8,2485.69C2690.25,2486.8 2690.72,2487.9 2691.22,2488.99C2684.34,2460.53 2686.83,2427.77 2700.36,2396.62C2703,2390.55 2705.97,2384.74 2709.22,2379.24C2708.51,2379.04 2707.84,2378.67 2707.27,2378.12C2705.59,2376.51 2705.39,2373.96 2706.67,2372.12C2721.09,2351.45 2741.8,2334.71 2765.93,2324.91C2766.32,2324.76 2766.7,2324.61 2767.09,2324.45ZM2067.97,2049.22C2101.71,2055.76 2200.55,2080.37 2244.84,2150.41C2269.14,2188.84 2273.53,2235.81 2257.93,2290.15C2251.39,2295.51 2244.52,2300.6 2237.41,2305.47C2220.37,2317.09 2202.06,2327.41 2183.24,2338.29C2173.85,2343.77 2164.32,2349.39 2154.82,2355.85C2145.37,2362.36 2135.79,2369.64 2127.21,2379.61C2125.01,2381.95 2123.12,2384.94 2121.13,2387.66C2119.33,2390.63 2117.52,2393.69 2116.09,2396.99C2114.71,2400.37 2113.34,2403.73 2112.63,2407.39L2112,2410.09L2111.71,2411.44L2111.54,2412.46L2110.91,2416.51C2109.2,2427.32 2107.73,2437.81 2105.86,2448.03C2102.28,2468.47 2097.21,2488.1 2088.42,2504.51C2084.05,2512.73 2078.42,2519.59 2072.18,2525.54C2068.71,2528.05 2065.59,2531.06 2061.65,2532.88C2059.72,2533.83 2058.06,2535.24 2055.94,2535.89L2049.8,2538.25C2047.85,2539.21 2045.53,2539.48 2043.36,2540.03L2036.75,2541.59C2031.67,2542.39 2026.57,2543.16 2021.47,2543.74C2011.27,2544.96 2001.06,2545.73 1990.9,2545.93C1970.61,2546.31 1950.43,2544.48 1931.88,2539.06C1913.34,2533.68 1896.66,2524.42 1884.42,2511C1872.08,2497.68 1864.18,2480.31 1860.4,2461.32C1859.32,2456.62 1858.73,2451.74 1858.09,2446.87C1857.54,2441.91 1857.31,2436.69 1856.89,2431.61C1856.39,2426.5 1856.37,2421.36 1856.33,2416.23C1856.32,2411.1 1856.03,2405.97 1856.41,2400.84C1856.82,2380.3 1859.67,2359.83 1863.81,2339.68C1868.04,2319.54 1873.83,2299.65 1881.46,2280.46C1896.57,2242.04 1917.53,2205.74 1943.81,2174C1970.58,2141.66 2001.01,2112.09 2032.38,2082.86C2044.19,2071.77 2056.18,2060.7 2067.97,2049.22ZM2832.35,2340.34C2833.87,2340.81 2835.37,2341.32 2836.86,2341.87C2857.16,2349.16 2873.66,2364.61 2882.75,2383.66C2891.91,2402.86 2893.36,2425.49 2888.67,2446.77C2879.17,2489.56 2843.98,2526.65 2800.98,2538.3C2789.72,2541.26 2777.91,2542.5 2766.28,2541.66C2736.2,2500.38 2738.94,2435.41 2775.82,2385.87C2791.61,2364.69 2811.38,2349.31 2832.35,2340.34ZM2243.82,2339.5L2243.82,2365.59C2243.82,2367.2 2243.8,2368.81 2243.76,2370.42C2239.97,2360.11 2236.72,2353 2234.84,2349.18C2234.75,2348.14 2234.63,2346.84 2234.5,2345.31C2237.61,2343.41 2240.72,2341.48 2243.82,2339.5ZM2392.81,2140.85C2391.65,2141.29 2390.28,2141.13 2389.22,2140.31C2387.71,2139.15 2387.34,2137.04 2388.31,2135.44C2396.42,2121.99 2404.95,2108.57 2415.42,2096.61C2417.9,2093.5 2420.47,2090.46 2423.28,2087.64L2431.54,2079C2437.45,2073.64 2443.14,2067.98 2449.58,2063.14C2455.69,2057.91 2462.57,2053.63 2469.27,2049.09L2479.89,2043.07C2483.38,2040.96 2487.26,2039.52 2490.94,2037.72C2505.93,2031.06 2522.34,2026.56 2539.58,2026.11C2556.7,2025.63 2574.96,2029.9 2589.85,2040.17C2604.88,2050.21 2615.84,2065.48 2622.13,2081.62C2628.58,2097.83 2630.82,2114.93 2630.85,2131.61C2630.69,2148.32 2628.08,2164.68 2624.18,2180.59C2620.3,2196.54 2614.09,2211.66 2607.39,2226.44C2600.03,2240.89 2592.26,2255.16 2582.69,2268.23C2578.24,2275 2572.84,2281.08 2567.84,2287.44C2565.23,2290.54 2562.4,2293.45 2559.69,2296.46C2556.97,2299.46 2554.24,2302.46 2551.24,2305.2C2539.87,2316.78 2526.92,2326.83 2513.28,2335.78C2499.62,2344.73 2484.58,2351.84 2468.72,2356.76C2452.84,2361.5 2435.75,2363.81 2418.73,2361.3C2410.26,2359.95 2401.91,2357.44 2394.22,2353.56C2390.48,2351.4 2386.53,2349.65 2383.12,2347.01C2379.66,2344.47 2376.4,2341.66 2373.44,2338.59C2361.47,2326.29 2354.45,2310.5 2351.22,2294.7C2350.71,2292.19 2352.32,2289.74 2354.83,2289.23C2355.62,2289.07 2356.4,2289.12 2357.12,2289.34C2350.52,2255.59 2357.2,2211.93 2378.59,2167.1C2382.92,2158.02 2387.68,2149.26 2392.81,2140.85ZM2596.04,2080.79C2597.58,2083.76 2598.94,2086.86 2600.1,2090.07C2604.71,2102.88 2606.59,2117.05 2606.48,2131.35C2606.19,2145.72 2603.74,2160.16 2600.12,2174.33C2596.4,2188.51 2591.04,2202.31 2585,2215.79C2578.34,2229 2571.34,2242.15 2562.61,2254.19C2546.08,2278.85 2525,2300.43 2501.06,2317.45C2489.11,2326.05 2476.01,2332.74 2462.5,2337.68C2454.65,2340.53 2446.54,2342.64 2438.39,2343.65C2406.65,2329.79 2407.88,2268.71 2443.08,2200.01C2481.17,2125.69 2544.61,2070.59 2584.77,2076.95C2588.94,2077.61 2592.7,2078.91 2596.04,2080.79ZM1643.26,2085.67L1643.26,2120.28C1643.26,2135.08 1650.32,2149.22 1662.14,2158.12L1704.08,2189.7C1709.92,2194.09 1713.41,2201.08 1713.41,2208.38L1713.41,2310.56L1702.18,2310.56L1699.57,2302.75C1685.49,2265.4 1667.16,2228.62 1640.66,2196.79C1632.35,2186.65 1623.17,2177.05 1613.26,2168.22C1629.38,2142.93 1637.87,2116.89 1642.02,2093.45C1642.48,2090.87 1642.89,2088.28 1643.26,2085.67ZM1667.24,2023.61L1933.47,2023.61C1960.07,2023.61 1981.71,2045.25 1981.71,2071.85L1981.71,2085.93C1975.52,2092.14 1969.35,2098.39 1963.24,2104.73C1955.08,2113.26 1946.99,2121.9 1939.05,2130.73C1927.05,2112.09 1906.12,2099.71 1882.35,2099.71C1845.2,2099.71 1814.98,2129.94 1814.98,2167.09C1814.98,2199.21 1837.58,2226.16 1867.72,2232.86C1861.84,2244.61 1856.49,2256.62 1851.68,2268.85C1846.28,2282.45 1841.72,2296.4 1837.91,2310.56L1737.38,2310.56L1737.38,2208.38C1737.38,2193.59 1730.32,2179.45 1718.5,2170.55L1676.56,2138.97C1670.72,2134.58 1667.24,2127.59 1667.24,2120.28L1667.24,2023.61ZM2618.88,2293.04C2636.47,2272.17 2649.51,2248.79 2658.4,2223.91C2662.73,2211.44 2666.31,2198.71 2668.53,2185.7C2671.02,2172.75 2672.16,2159.57 2672.5,2146.42C2673.14,2120.13 2669.54,2093.64 2660.63,2069.18C2651.7,2044.8 2636.39,2022.63 2612.9,2009.44L2612.83,2009.4C2611.02,2008.39 2610.38,2006.1 2611.39,2004.3C2612.25,2002.77 2614.01,2002.08 2615.62,2002.5C2629.83,2006.24 2642.96,2014.37 2653.8,2024.67C2664.63,2035.06 2673.13,2047.66 2679.52,2061.03C2692.48,2087.86 2697.56,2117.6 2697.36,2146.85C2697.24,2161.52 2695.43,2176.12 2692.56,2190.48C2689.29,2204.76 2684.94,2218.84 2678.82,2232.16C2666.88,2258.83 2648.65,2283.1 2625.11,2299.88C2623.02,2301.37 2620.11,2300.89 2618.62,2298.79C2617.36,2297.02 2617.51,2294.68 2618.84,2293.09L2618.88,2293.04ZM2290.4,2256.7C2296.06,2211.77 2287.88,2171.65 2265.91,2136.96C2221.91,2067.48 2134.62,2038.72 2088.9,2028.03C2100.85,2015.34 2112.32,2001.94 2122.86,1987.33C2136.13,1969.03 2147.54,1948.04 2152.79,1924.77C2155.24,1913.16 2156.44,1901.23 2155.44,1889.5C2154.39,1877.79 2151.67,1866.46 2147.26,1856C2146.43,1854.05 2144.49,1852.68 2142.24,1852.7C2139.25,1852.72 2136.85,1855.16 2136.87,1858.14L2136.87,1858.37C2136.95,1868.95 2136.6,1879.09 2135.08,1888.89C2133.5,1898.69 2130.8,1908.08 2127.17,1917.07C2123.82,1926.15 2119.07,1934.73 2113.89,1943.14C2108.71,1951.53 2103,1959.75 2096.65,1967.7C2071.97,1998.44 2041.71,2026.57 2012.07,2055.88C2004.64,2019.28 1972.22,1991.65 1933.47,1991.65L1640.12,1991.65C1630.42,1939.34 1609.3,1888.83 1586.11,1848.48C1625.21,1856.91 1665.54,1861.32 1706.58,1861.32C1736.79,1861.32 1767.41,1858.92 1798.17,1853.99C1930.23,1832.8 2044.66,1768.01 2129.11,1676.7C2134.99,1683.53 2140.97,1690.28 2146.32,1697.52C2159.11,1714.46 2172.52,1730.99 2184.33,1748.6C2190.37,1757.31 2196.56,1765.93 2202.49,1774.71L2219.5,1801.53C2222.29,1806.02 2225.27,1810.41 2227.91,1814.99L2235.76,1828.76C2240.89,1837.99 2246.45,1847.01 2251.23,1856.41C2271.01,1893.72 2287.71,1932.51 2300.84,1972.31C2313.85,2012.11 2322.84,2053.21 2325.43,2094.57C2325.65,2104.9 2326.06,2115.23 2326.15,2125.55L2325.34,2140.96L2324.95,2148.67L2324.76,2152.53L2324.25,2156.34L2322.21,2171.57L2321.2,2179.19L2319.56,2186.67L2316.25,2201.62C2315.77,2204.17 2315.06,2206.52 2314.32,2208.82L2312.16,2215.82C2306.97,2230.44 2299.68,2244.19 2290.4,2256.7ZM1263.84,1926.87C1223.76,2042.37 1229.03,2147.51 1279.2,2206.24C1314.38,2247.39 1367.75,2260.92 1433.52,2245.31C1536.81,2220.84 1596.37,2167.87 1610.55,2087.88C1631.86,1967.63 1543.89,1820.57 1502.52,1793.25C1494.79,1788.15 1487.54,1783.44 1480.78,1779.05C1439.68,1752.34 1414.87,1736.22 1406.76,1712.29C1402.7,1700.32 1401.33,1687.78 1399.88,1674.49C1396.97,1647.77 1393.67,1617.47 1366.41,1582C1350.09,1560.77 1315.76,1546.52 1281.73,1546.52C1280.25,1546.52 1278.78,1546.54 1277.31,1546.6C1261.28,1547.19 1232.07,1551.72 1216.46,1575.48C1172.31,1642.61 1186.85,1791.88 1270.77,1877.68C1271.31,1878.16 1271.83,1878.68 1272.31,1879.24L1272.53,1879.5C1272.85,1879.85 1273.15,1880.21 1273.43,1880.59C1280.9,1889.77 1287.1,1899.58 1291.29,1909.69L1294.66,1917.56C1295.66,1920.2 1296.44,1922.86 1297.33,1925.5L1299.9,1933.46L1301.87,1941.45C1307.08,1962.76 1309.23,1984.12 1310.37,2005.35C1311.3,2026.58 1311.89,2047.85 1309.01,2068.91C1308.33,2074.17 1307.34,2079.4 1306.45,2084.63C1305.49,2089.85 1304.03,2095.02 1302.59,2100.14C1299.48,2110.36 1295.47,2120.46 1289.57,2129.79C1287.1,2133.68 1281.95,2134.84 1278.05,2132.38C1275.68,2130.88 1274.32,2128.38 1274.17,2125.78L1274.16,2125.55C1273.14,2104.83 1274.63,2085.41 1275.92,2065.67C1277.12,2046.01 1278.88,2026.29 1278.2,2006.64C1277.61,1987.02 1275.25,1967.52 1270.82,1949.06C1268.97,1941.43 1266.66,1933.92 1263.84,1926.87ZM1930.73,2140.1C1926.84,2144.55 1923,2149.05 1919.21,2153.6C1901.69,2174.76 1886.43,2197.64 1873.48,2221.76C1847.1,2217.51 1826.96,2194.65 1826.96,2167.08C1826.96,2136.49 1851.76,2111.7 1882.35,2111.7C1903.14,2111.7 1921.26,2123.16 1930.73,2140.1ZM2854.85,1429.84C2885.43,1422.96 2918.58,1425.24 2948.64,1436.75C2978.84,1448.11 3005.09,1469.26 3024.44,1495.13C3044.13,1520.96 3055.98,1551.97 3061.52,1583.57C3066.77,1615.29 3065.77,1647.93 3058.65,1679.13C3051.42,1710.3 3038.8,1740.14 3021.02,1766.7C3003.3,1793.25 2980.38,1816.44 2953.64,1833.9C2927,1851.37 2896.46,1863.44 2864.71,1866.75C2833.03,1869.87 2800.53,1864.43 2772.64,1850.23C2770.81,1849.29 2770.08,1847.05 2771.01,1845.21C2771.88,1843.51 2773.87,1842.76 2775.62,1843.4L2775.68,1843.42C2803.74,1853.71 2833.84,1856.25 2862.58,1851.31C2891.38,1846.43 2918.37,1833.72 2941.98,1816.94C2989.33,1783.01 3021.9,1730.21 3034.39,1673.67C3040.6,1645.39 3041.96,1616.02 3037.35,1587.56C3035.41,1573.27 3031.35,1559.41 3026.53,1545.88C3025.3,1542.51 3023.64,1539.33 3022.23,1536.03C3020.67,1532.81 3019.48,1529.38 3017.63,1526.32L3012.31,1516.99C3011.42,1515.44 3010.6,1513.83 3009.64,1512.32L3006.53,1507.96L3000.32,1499.2C2998.13,1496.38 2995.62,1493.83 2993.29,1491.12C2988.8,1485.49 2983.26,1480.96 2978,1476.1C2975.47,1473.53 2972.49,1471.54 2969.59,1469.44L2960.87,1463.11C2954.57,1459.7 2948.44,1455.85 2941.91,1452.79C2915.73,1440.5 2885.9,1436.09 2856.3,1438.97C2853.75,1439.22 2851.49,1437.36 2851.24,1434.81C2851.01,1432.46 2852.6,1430.34 2854.85,1429.84ZM1560.71,1809.25C1554.83,1801.25 1549.03,1794.07 1543.45,1787.85C1583.57,1794.78 1626.5,1798.92 1670.85,1798.92C1710.55,1798.92 1751.4,1795.61 1792.38,1788.01C1922.19,1763.96 2029.33,1710.13 2105.94,1654.7C2026.12,1741.11 1917.95,1802.39 1793.1,1822.43C1713.01,1835.28 1634.13,1829.86 1560.71,1809.25ZM2976.46,1694.38C2965.42,1724.37 2945.72,1751.68 2919.55,1771.61C2906.35,1781.38 2891.61,1789.38 2875.73,1794.68C2859.8,1799.75 2842.82,1802.29 2825.78,1801.12C2791.54,1799.18 2758.89,1781.18 2737.16,1754.83C2726.21,1741.63 2718.34,1726.27 2712.82,1710.36C2707.41,1694.39 2704.16,1677.71 2703.84,1660.96C2703.55,1644.22 2705.51,1627.57 2709.37,1611.39C2713.56,1595.28 2719.75,1579.81 2727.63,1565.23C2735.92,1550.85 2745.83,1537.44 2757.38,1525.5C2768.99,1513.61 2782.58,1503.71 2797.17,1495.78C2826.19,1479.63 2861.66,1474.1 2893.95,1482.48C2910.02,1486.69 2925.24,1493.98 2938.01,1504.32C2944.39,1509.47 2950.27,1515.17 2955.43,1521.44C2960.72,1527.61 2964.64,1534.73 2968.97,1541.44C2970.08,1543.16 2969.58,1545.45 2967.86,1546.56C2966.26,1547.59 2964.17,1547.24 2962.99,1545.8L2962.63,1545.36C2957.84,1539.47 2953.56,1533.25 2948.09,1528.12C2942.81,1522.83 2937.04,1518.11 2930.9,1514.01C2924.73,1509.97 2918.25,1506.46 2911.47,1503.7C2904.56,1501.26 2897.69,1498.81 2890.5,1497.68C2861.97,1492.23 2831.99,1498.73 2807.23,1513.73C2757.06,1543.26 2726.63,1602.69 2728.69,1660.2C2729.85,1688.84 2738.54,1717.51 2756.24,1739.46C2773.58,1761.41 2799.52,1776.3 2827.62,1779.17C2855.74,1782.17 2885.02,1773.52 2909.51,1757.4C2934.2,1741.28 2954.13,1717.7 2967.97,1690.69L2967.99,1690.67C2969.15,1688.39 2971.94,1687.49 2974.22,1688.66C2976.33,1689.74 2977.26,1692.21 2976.46,1694.38ZM2168.47,1629.33C2212.6,1665.38 2241.51,1719.44 2243.69,1780L2229.11,1757.03C2223.01,1747.99 2216.66,1739.13 2210.44,1730.17C2198.28,1712.05 2184.55,1695.15 2171.46,1677.75C2168.21,1673.38 2164.89,1669.07 2161.38,1664.92L2151.14,1652.21L2150.83,1651.83C2156.9,1644.47 2162.78,1636.97 2168.47,1629.33ZM1481.46,1741.32C1456.8,1725.04 1440.79,1713.12 1437.03,1702.02C1434.09,1693.38 1432.96,1683.02 1431.66,1671.03C1428.45,1641.66 1424.47,1605.1 1391.75,1562.53C1375.94,1541.96 1349.49,1526.48 1319.78,1519.19C1324.14,1477.8 1335.79,1399.34 1366.7,1293.99C1427.67,1086.17 1659.18,985.069 1659.18,985.069C1659.53,983.087 1655.98,982.041 1649.24,982.041C1605.26,982.041 1425.76,1026.63 1311.25,1147.14C1209.18,1254.56 1268.46,1437.95 1300.64,1515.7C1292.55,1514.72 1284.33,1514.36 1276.13,1514.66C1255.3,1515.43 1236.72,1520.32 1221.31,1528.89C1201.76,1488.72 1187.84,1445.9 1179.98,1401.27C1157.22,1271.94 1191.31,1163.3 1281.32,1078.36C1362.4,1001.84 1487.79,946.863 1643.93,919.381C1703.28,908.937 1759.8,903.741 1812.69,903.741C1898.97,903.741 1975.59,917.566 2039.03,944.991C2152.63,994.097 2221.77,1084.57 2244.54,1213.9C2247.05,1228.18 2248.92,1242.51 2250.14,1256.82C2255.16,1350.86 2235.49,1441.77 2196.3,1522.39C2155.03,1588.72 2002.19,1716.63 1786.56,1756.58C1677.44,1776.8 1568.04,1764.77 1481.46,1741.32ZM1195.46,1550.19C1193.42,1552.65 1191.52,1555.23 1189.75,1557.92C1187.83,1560.84 1186,1563.88 1184.26,1567.04C1140.16,1563.87 1101.28,1532.5 1090.69,1487.26L1065.13,1378.17C1052.96,1326.23 1082.33,1274.09 1131.54,1256.75C1129.65,1296.39 1131.86,1336.51 1138.29,1376.61C1148.27,1438.82 1167.93,1497.12 1195.46,1550.19ZM2021.08,1457.6C2019.48,1457.6 2017.86,1457.49 2016.23,1457.25C1994.89,1454.17 1980.51,1431.51 1984.11,1406.65C1987.43,1383.69 2004.93,1366.88 2024.39,1366.88C2026,1366.88 2027.62,1366.99 2029.25,1367.23C2050.58,1370.32 2064.96,1392.97 2061.37,1417.83C2058.04,1440.79 2040.55,1457.61 2021.08,1457.6ZM2283.62,1313.49C2284.22,1293.87 2283.69,1274.19 2282.02,1254.53C2280.93,1234.48 2278.78,1214.33 2275.54,1194.11C2264.67,1126.37 2242.33,1062.33 2209.85,1004.17C2261.54,998.005 2310.87,1031.65 2323.01,1083.5L2348.57,1192.59C2360.62,1244.02 2331.95,1295.63 2283.62,1313.49ZM2075.11,1302.77L2074.84,1302.77C2035.19,1302.57 2003.26,1258.05 2003.54,1203.32C2003.81,1148.72 2036.03,1104.6 2075.57,1104.6L2075.84,1104.6C2107.88,1104.76 2134.88,1133.87 2143.92,1173.92C2143.97,1198.51 2142.58,1222.93 2139.81,1247.05C2128.08,1280.06 2103.47,1302.77 2075.11,1302.77ZM2157.39,979.981C2041.94,866.753 1850.01,823.945 1630.75,862.537C1410.21,901.359 1245.02,1009.54 1177.47,1159.37C1176.76,1162.34 1176.08,1165.3 1175.42,1168.29C1195.04,1127.19 1223.04,1089.4 1259.38,1055.11C1345.02,974.293 1476.08,916.473 1638.39,887.906C1800.7,859.336 1943.62,868.934 2051.71,915.652C2093.84,933.863 2130.37,957.242 2161.22,985.695C2159.96,983.784 2158.68,981.881 2157.39,979.981ZM2066.98,877.582C1948.36,818.383 1794.23,801.308 1625.22,831.06C1456.43,860.769 1318.22,930.048 1227.93,1027.41C1239.26,1006.47 1252.03,986.141 1266.21,966.541C1351.37,848.824 1477.27,771.316 1620.73,748.294C1649.91,743.612 1679.09,741.296 1708.08,741.296C1821.61,741.296 1931.96,776.813 2025.74,844.655C2040.09,855.036 2053.84,866.022 2066.98,877.582Z" style="fill:rgb(119,254,255);"/>
    </g>
</svg>
