<?xml version="1.0" encoding="UTF-8" standalone="no"?>
<!DOCTYPE svg PUBLIC "-//W3C//DTD SVG 1.1//EN" "http://www.w3.org/Graphics/SVG/1.1/DTD/svg11.dtd">
<svg width="100%" height="100%" viewBox="0 0 2782 3021" version="1.1" xmlns="http://www.w3.org/2000/svg" xmlns:xlink="http://www.w3.org/1999/xlink" xml:space="preserve" xmlns:serif="http://www.serif.com/" style="fill-rule:evenodd;clip-rule:evenodd;stroke-linejoin:round;stroke-miterlimit:2;">
    <g transform="matrix(1,0,0,1,-176.927,-50)">
        <g transform="matrix(1,0,0,1,-398.045,-403.065)">
            <g transform="matrix(1,0,0,1,398.045,403.065)">
                <path d="M643.105,3002.53C643.105,3009.05 629.725,3014.74 609.755,3017.88C599.671,3019.45 591.728,3027.39 590.147,3037.49C587.015,3057.45 581.325,3070.83 574.802,3070.83C568.279,3070.83 562.59,3057.45 559.457,3037.49C557.876,3027.39 549.933,3019.45 539.847,3017.88C519.858,3014.74 506.452,3009.05 506.452,3002.53C506.452,2995.97 519.846,2990.28 539.821,2987.16C549.919,2985.59 557.876,2977.64 559.458,2967.55C562.59,2947.55 568.279,2934.18 574.802,2934.18C581.325,2934.18 587.014,2947.55 590.146,2967.55C591.727,2977.64 599.684,2985.59 609.785,2987.16C629.745,2990.28 643.105,2995.97 643.105,3002.53ZM2473.7,2797.39C2473.7,2809.47 2463.91,2819.26 2451.84,2819.26C2439.76,2819.26 2429.95,2809.47 2429.95,2797.39C2429.95,2785.3 2439.76,2775.51 2451.84,2775.51C2463.91,2775.51 2473.7,2785.3 2473.7,2797.39ZM2957.95,2049.36C2957.95,2055.88 2944.58,2061.57 2924.6,2064.7C2914.51,2066.28 2906.57,2074.22 2904.99,2084.3C2901.86,2104.28 2896.16,2117.66 2889.64,2117.66C2883.12,2117.66 2877.43,2104.28 2874.3,2084.3C2872.72,2074.22 2864.78,2066.28 2854.68,2064.7C2834.7,2061.57 2821.3,2055.88 2821.3,2049.36C2821.3,2042.8 2834.68,2037.1 2854.66,2033.99C2864.76,2032.41 2872.72,2024.47 2874.3,2014.37C2877.43,1994.38 2883.12,1981.01 2889.64,1981.01C2896.16,1981.01 2901.86,1994.38 2904.99,2014.37C2906.57,2024.47 2914.53,2032.41 2924.62,2033.99C2944.59,2037.1 2957.95,2042.8 2957.95,2049.36ZM516.65,1361.7C516.65,1368.23 503.277,1373.91 483.303,1377.06C473.219,1378.63 465.276,1386.58 463.695,1396.65C460.562,1416.63 454.873,1430.01 448.35,1430.01C441.827,1430.01 436.138,1416.63 433.005,1396.66C431.424,1386.58 423.48,1378.63 413.394,1377.06C393.406,1373.91 380,1368.24 380,1361.7C380,1355.14 393.394,1349.45 413.369,1346.35C423.467,1344.77 431.424,1336.82 433.006,1326.73C436.138,1306.73 441.827,1293.36 448.35,1293.36C454.872,1293.36 460.562,1306.73 463.694,1326.73C465.275,1336.82 473.232,1344.77 483.329,1346.35C503.288,1349.45 516.65,1355.14 516.65,1361.7ZM2774.05,987.305C2774.05,993.515 2769.01,998.555 2762.8,998.555C2756.58,998.555 2751.55,993.515 2751.55,987.305C2751.55,981.085 2756.58,976.055 2762.8,976.055C2769.01,976.055 2774.05,981.085 2774.05,987.305ZM220.677,638.545C220.677,650.625 210.883,660.425 198.802,660.425C186.72,660.425 176.927,650.625 176.927,638.545C176.927,626.465 186.72,616.675 198.802,616.675C210.883,616.675 220.677,626.465 220.677,638.545ZM609.665,433.75C609.665,445.831 599.875,455.625 587.794,455.625C575.713,455.625 565.919,445.831 565.919,433.75C565.919,421.669 575.713,411.875 587.794,411.875C599.875,411.875 609.665,421.669 609.665,433.75ZM2618.78,348.383C2618.78,360.464 2608.99,370.258 2596.91,370.258C2584.82,370.258 2575.03,360.464 2575.03,348.383C2575.03,336.302 2584.82,326.508 2596.91,326.508C2608.99,326.508 2618.78,336.302 2618.78,348.383ZM2324.47,135.031C2324.47,143.147 2307.84,150.225 2282.99,154.121C2270.45,156.089 2260.57,165.97 2258.6,178.515C2254.7,203.364 2247.62,220 2239.51,220C2231.39,220 2224.32,203.364 2220.41,178.516C2218.45,165.97 2208.57,156.088 2196.01,154.122C2171.16,150.225 2154.47,143.147 2154.47,135.031C2154.47,126.87 2171.14,119.784 2195.99,115.915C2208.55,113.958 2218.45,104.07 2220.41,91.51C2224.32,66.634 2231.39,50 2239.51,50C2247.62,50 2254.7,66.635 2258.6,91.511C2260.57,104.07 2270.45,113.958 2283.03,115.915C2307.86,119.785 2324.47,126.871 2324.47,135.031Z" style="fill:rgb(119,254,255);fill-rule:nonzero;"/>
            </g>
            <g transform="matrix(1,0,0,1,398.045,403.065)">
                <path d="M1176.81,1637.36C910.103,1517.7 723.895,1249.64 723.895,938.915C723.895,517.07 1067.09,173.876 1488.93,173.876C1819.27,173.876 2101.38,384.332 2208.23,678.228C2246.83,701.825 2279.78,744.18 2300.63,797.248C2320,789.216 2341.84,785.693 2364.12,787.215C2478.72,794.945 2528.16,851.915 2549.47,898.355C2585.24,976.255 2564.28,1069.97 2525.1,1122.3C2518.55,1131.05 2514.3,1141.01 2512.83,1151.11C2499.77,1240.08 2482.29,1320.51 2460.82,1390.36C2461.07,1392.34 2460.97,1394.4 2460.49,1396.45C2458.96,1403.07 2432.02,1515.34 2350.68,1634.91L2364.24,1629.8C2387.95,1620.85 2414.1,1623.07 2435.97,1635.87L2462.99,1651.69C2490.18,1667.62 2509.95,1694.33 2517.24,1724.99L2579.66,1987.84C2590.41,2033.04 2568.18,2080.43 2526.8,2100.55C2520.67,2103.52 2514.52,2106.39 2508.35,2109.13C2517.55,2161.79 2523.85,2197.08 2524.03,2198.07C2524.14,2198.72 2524.22,2199.39 2524.24,2200.05C2524.49,2205.93 2529.47,2344.97 2445.88,2431.41C2406.09,2472.54 2353.15,2494.55 2288.36,2496.96C2262.67,2629.28 2212.41,2749.38 2136.38,2861.01C2096.85,2919.05 2031.87,2954.45 1962.56,2955.7C1883.07,2957.18 1801.51,2934.28 1719.58,2887.7C1703.41,2962.47 1652.07,3017.64 1588.35,3025.49C1583.79,3026.07 1579.1,3026.36 1574.32,3026.36C1527.8,3026.36 1472.86,2998.43 1444.29,2918.59C1427.28,2871.07 1425.57,2818.84 1439.33,2767.55L1485.2,2596.41L1279.18,2600.99L1233.2,2640.84L1085.2,2851.41C1062.27,2884.03 1027.24,2906.03 989.095,2911.76C966.945,2915.09 943.625,2914.74 919.765,2910.74C868.335,2902.12 819.835,2875.3 783.195,2835.2C680.395,2722.72 552.463,2582.74 671.605,2411.3C671.905,2410.88 672.225,2410.45 672.565,2410.05C673.545,2408.88 770.365,2296.97 927.455,2404.66L981.005,2341.53C909.985,2347.16 847.385,2327.7 808.035,2286.38C776.435,2253.2 745.235,2190.41 775.995,2079.68C787.615,2037.83 815.785,2003.21 853.275,1984.68C884.755,1969.12 917.895,1967.11 949.815,1978.65C960.815,1969.13 980.555,1956.49 1006.06,1959.18C1039.41,1962.69 1069.97,1990.99 1096.99,2043.3C1142.07,2054.93 1183.78,2051.01 1223.87,2031.31C1149.32,1883.16 1096.8,1735.81 1176.81,1637.36ZM1522.81,2591.32L1616.26,2560.49C1623.14,2563.26 1630.06,2565.98 1637.24,2567.88L1652.99,2572.55C1658.26,2574.05 1663.68,2574.8 1669.04,2575.95L1685.17,2578.85C1690.59,2579.6 1696.04,2579.97 1701.45,2580.53L1717.74,2582.03L1729.3,2582.34C1730.61,2603.91 1733.81,2624.85 1738.33,2645.72C1743.69,2670.43 1751.24,2694.62 1760.26,2718.34C1766.53,2735.17 1774.51,2751.42 1784.02,2766.72C1770.19,2779.86 1748.16,2809.05 1746.5,2862.63C1736.18,2857.01 1725.87,2850.99 1715.54,2844.58C1712.41,2842.63 1708.8,2841.75 1705.24,2841.97L1633.38,2803.64C1631.04,2802.39 1628.04,2802.91 1626.27,2805.05C1624.25,2807.49 1624.59,2811.1 1627.03,2813.12L1688.2,2863.82C1678.13,2943.4 1627.69,2985.37 1584.06,2990.76C1538,2996.45 1498.09,2965.05 1477.24,2906.8C1462.64,2866.01 1461.23,2820.99 1473.12,2776.61L1522.81,2591.32ZM1767.39,2873.46C1766.29,2823.43 1784.21,2796.5 1795.93,2784.31C1796.14,2784.6 1796.35,2784.88 1796.57,2785.16C1800.4,2790.24 1804.44,2795.16 1808.39,2800.12C1812.44,2804.99 1817.11,2809.39 1821.41,2814.01L1828.09,2820.74C1830.42,2822.88 1832.88,2824.89 1835.32,2826.91C1840.17,2830.99 1845.09,2834.93 1850.09,2838.72C1851.85,2840.05 1854.34,2840.18 1856.26,2838.87C1858.65,2837.22 1859.28,2833.93 1857.62,2831.53L1857.43,2831.26C1843.58,2810.99 1829.67,2791.8 1818.23,2770.97C1814.98,2766.05 1812.72,2760.49 1809.8,2755.38C1807.02,2750.16 1804.12,2745.05 1801.67,2739.66C1799.12,2734.34 1796.3,2729.16 1793.8,2723.83L1786.42,2707.7C1777.18,2685.89 1770.29,2663.08 1765.24,2639.89C1761.12,2620.99 1758.16,2601.56 1756.89,2582.48C1792.59,2581.73 1827.99,2577.43 1862.6,2570.26C1904.62,2561.74 1945.54,2549.26 1985.4,2534.49C1987.93,2533.55 1989.38,2530.78 1988.62,2528.14C1987.83,2525.36 1984.92,2523.74 1982.14,2524.53L1982.11,2524.55C1941.63,2536.14 1900.62,2545.41 1859.32,2551.3C1822.15,2556.42 1784.69,2558.93 1747.66,2557.01C1745.97,2556.33 1744.11,2555.97 1742.16,2556.03C1741.07,2556.05 1740.01,2556.21 1739,2556.48C1737.79,2556.39 1736.57,2556.3 1735.36,2556.2L1720,2554.99L1704.78,2552.82L1689.59,2550.62L1674.59,2547.6C1664.49,2545.97 1654.62,2543.45 1644.68,2541.12C1637.29,2539.68 1630.11,2537.52 1622.92,2535.33C1620.42,2533.52 1617.34,2532.57 1614.17,2532.71L1607.79,2530.8L1600.62,2528.03L1586.28,2522.49C1581.41,2520.78 1576.85,2518.45 1572.15,2516.33L1558.12,2509.84C1548.86,2505.26 1540.09,2499.76 1530.85,2494.95L1504.48,2478.11L1504.31,2478.01C1502.24,2476.68 1499.44,2476.95 1497.68,2478.8C1495.68,2480.91 1495.77,2484.24 1497.87,2486.24C1521.74,2508.97 1549.15,2528.47 1578.89,2543.82L1518.01,2563.9C1515.14,2561.91 1511.73,2560.8 1508.21,2560.89C1508.06,2560.89 1507.91,2560.89 1507.77,2560.91L1272.11,2566.14C1268.03,2566.22 1264.12,2567.74 1261.04,2570.41L1221.83,2604.38C1210.63,2557.51 1194.9,2519.88 1177.12,2489.66L1177.11,2489.67C1148.16,2440.53 1113.73,2411.07 1084.43,2393.51C1054.99,2375.85 1027.4,2367.81 1007.7,2364.18L1037.96,2328.51C1040.49,2325.53 1041.88,2321.88 1042.09,2318.17L1056.3,2302.03C1076.97,2278.53 1104.01,2262.34 1134.48,2255.2L1341.38,2206.68L1358.84,2263.55C1371.43,2304.61 1409.45,2332.18 1451.56,2332.18C1454.95,2332.18 1458.38,2332.01 1461.82,2331.64C1651.38,2311.43 1814.37,2285.6 1960.08,2252.64C1961.39,2252.34 1962.67,2251.86 1963.87,2251.22C1994.13,2234.97 2022.26,2210.34 2047.44,2177.99C2062.46,2158.72 2070.45,2135.51 2070.46,2111.68L2070.72,2111.68C2134,2109.64 2196.69,2095.34 2257.11,2069.16C2279,2219.36 2278.12,2357.19 2254.42,2483.69L2254.23,2484.72C2253.85,2486.75 2253.46,2488.77 2253.07,2490.79L2252.89,2491.7C2227.89,2619.44 2179.44,2735.62 2107.45,2841.32C2074.3,2889.97 2019.89,2919.66 1961.92,2920.7C1898.63,2921.83 1833.39,2905.98 1767.39,2873.46ZM914.472,2874.01L1020.92,2776.73C1025.1,2793.01 1026.59,2808.4 1024.61,2822.39C1021.22,2846.31 1007.56,2864.37 982.973,2877.28C964.745,2879.9 945.435,2879.56 925.555,2876.22C921.84,2875.59 918.142,2874.86 914.472,2874.01ZM884.189,2864.38C856.13,2852.89 830.289,2834.85 809.035,2811.6L808.606,2811.12L974.725,2680.36L974.764,2680.32C989.591,2703.22 1002.32,2726.21 1011.32,2748.22L884.189,2864.38ZM952.207,2429.57L991.697,2383.03C1008.78,2385 1040.57,2391.38 1074.68,2412.09C1110.08,2433.57 1139.56,2465.33 1162.41,2506.15L1162.4,2506.16C1180.74,2538.91 1194.79,2577.51 1204.17,2621.28L1204.18,2621.28L1056.57,2831.28C1054.09,2834.8 1051.43,2838.16 1048.61,2841.34C1050.69,2834.38 1052.03,2827.02 1052.63,2819.26C1061.78,2701.67 893.276,2530.13 834.327,2474.39C834.048,2473.98 833.744,2473.59 833.415,2473.2C832.422,2472.05 831.277,2471.1 830.037,2470.36C820.522,2461.46 814.752,2456.41 814.375,2456.18C770.255,2429.72 730.905,2422.93 697.405,2436.07L696.963,2436.24C697.881,2434.86 698.829,2433.46 699.795,2432.07C707.265,2423.72 786.065,2341.93 919.855,2442.28C922.414,2444.2 925.338,2445.31 928.315,2445.66C942.379,2457.07 955.402,2470.3 967.435,2484.55C981.665,2501.43 994.555,2519.74 1006.5,2538.76C1007.99,2541.14 1011.07,2542.14 1013.7,2540.95C1016.58,2539.64 1017.86,2536.26 1016.56,2533.38C1007.15,2512.53 996.595,2492.03 984.155,2472.36C974.742,2457.48 964.223,2443.04 952.207,2429.57ZM790.082,2790.66C771.871,2770.32 754.736,2750.41 739.231,2730.74C798.731,2678.25 876.533,2609.78 903.514,2586.45C922.556,2608.66 941.877,2632.84 959.358,2657.59C958.785,2657.92 958.229,2658.29 957.695,2658.72L790.082,2790.66ZM675.157,2627.1L822.695,2500.55C838.933,2516.2 861.342,2538.95 885.368,2565.76C880.568,2569.87 874.316,2575.33 866.015,2582.59C848.375,2597.99 824.965,2618.55 801.595,2639.12C770.706,2666.28 739.883,2693.45 722.535,2708.75C702.569,2681.33 686.257,2654.28 675.157,2627.1ZM665.623,2598.99C657.064,2567.09 656.341,2534.76 665.94,2501.23C673.576,2487.39 686.872,2469.7 707.615,2461.64C732.575,2451.93 763.505,2457.91 799.565,2479.41C800.33,2480.03 801.259,2480.8 802.338,2481.73L665.623,2598.99ZM2293.79,2466.63C2300.36,2426.53 2304.74,2385.29 2306.97,2342.84C2310.47,2275.92 2308.55,2206.6 2301.09,2134.26C2306.83,2136.55 2312.89,2138.94 2318.64,2141.2C2333.01,2146.82 2348.22,2149.68 2363.53,2149.68C2371.12,2149.68 2378.72,2148.97 2386.26,2147.57C2417.62,2141.7 2448.97,2132.76 2479.95,2120.89C2487.73,2165.34 2493.21,2196.15 2494.3,2202.26C2494.57,2214.11 2495.55,2337.01 2424.2,2410.66C2391.35,2444.56 2347.55,2463.27 2293.79,2466.63ZM929.303,2008.91C918.47,2024.28 909.091,2041.2 903.965,2061.01C900.435,2074.91 900.015,2090.68 904.505,2105.39C908.845,2120.14 917.685,2132.88 927.735,2142.97C930.315,2145.41 932.915,2147.88 935.605,2150.16L943.945,2156.41C944.675,2156.95 945.265,2157.45 946.115,2157.97L948.835,2159.57C950.675,2160.61 952.445,2161.74 954.425,2162.53C958.425,2164.05 962.425,2165.53 966.705,2166.09C969.921,2166.58 973.189,2166.81 976.435,2166.74C976.479,2166.92 976.522,2167.1 976.564,2167.27C978.652,2175.94 978.808,2185.28 976.965,2194.49C974.455,2207.2 968.305,2219.58 959.345,2229.39C950.445,2239.2 938.505,2246.39 925.495,2247.95L924.795,2248.04L923.871,2248.14C919.116,2248.6 914.298,2248.26 909.545,2247.23L909.205,2247.16L908.122,2246.91C900.857,2245.12 893.773,2241.74 887.345,2237.16L887.162,2237.03C886.282,2236.44 885.268,2236.15 884.258,2236.14L883.837,2236.16L883.274,2236.24C882.178,2236.44 881.139,2237 880.339,2237.89L880.255,2237.99C878.385,2240.2 878.645,2243.49 880.845,2245.38C886.965,2250.59 893.915,2255.11 901.685,2258.2C908.865,2261.1 916.745,2262.68 924.695,2262.68C925.315,2262.68 925.935,2262.68 926.545,2262.66C943.845,2262.22 960.215,2254.28 972.655,2242.95L972.949,2242.68C980.835,2235.46 987.437,2226.89 992.47,2217.39L992.807,2216.75L993.573,2215.24L994.135,2214.1C996.258,2209.68 998.05,2205.09 999.485,2200.35L999.515,2200.24C1003.44,2187.31 1004.46,2173.08 1001.96,2159.23C1005.78,2157.01 1009.32,2154.35 1012.45,2151.24C1018.14,2145.45 1022.57,2138.47 1025.24,2130.84C1027.74,2123.1 1028.07,2114.86 1026.79,2107.2C1025.08,2099.26 1022.45,2093.47 1019.39,2087.45C1016.39,2081.53 1012.93,2075.97 1009.22,2070.68C1007.9,2068.82 1005.5,2067.93 1003.22,2068.7C1000.45,2069.61 998.945,2072.6 999.855,2075.38L999.875,2075.41C1001.82,2081.3 1003.59,2087.16 1005.07,2092.93C1006.49,2098.62 1007.75,2104.82 1007.69,2109.32C1007.47,2114.12 1006.55,2118.64 1004.42,2122.61C1002.26,2126.55 999.305,2129.97 995.785,2132.68C988.635,2138.03 979.485,2140.1 971.845,2138.07C969.875,2137.82 968.065,2136.89 966.195,2136.2C965.275,2135.8 964.445,2135.12 963.525,2134.68L962.165,2133.95C961.675,2133.68 961.065,2133.16 960.515,2132.78L953.775,2127.82L947.655,2122.45C939.785,2115.14 933.835,2106.68 930.935,2097.38C927.975,2088.09 928.145,2077.89 930.715,2067.53C935.192,2049.72 945.699,2032.4 958.056,2016.25C961.725,2015.34 965.115,2013.27 967.605,2010.19C967.755,2010.01 982.775,1991.77 1002.63,1994.03C1024.01,1996.43 1047.62,2021.92 1069.12,2065.8C1071.3,2070.22 1075.2,2073.51 1079.92,2074.89C1135.76,2091.23 1189.19,2087.17 1239.04,2062.84C1244.06,2088.3 1249.89,2137.12 1240.14,2202.13L1128.19,2228.39C1127.35,2228.58 1126.51,2228.79 1125.66,2229L1124.83,2229.21C1124.06,2229.4 1123.3,2229.6 1122.55,2229.81C1121.64,2230.05 1120.73,2230.3 1119.83,2230.56L1119.01,2230.79C1118.42,2230.97 1117.83,2231.14 1117.25,2231.32L1116.51,2231.54L1115.68,2231.8C1114.49,2232.17 1113.3,2232.55 1112.12,2232.95L1111.59,2233.13L1110.78,2233.41C1109.97,2233.68 1109.16,2233.97 1108.35,2234.26C1101.07,2236.89 1093.99,2239.97 1087.16,2243.5L1086.47,2243.86L1085.41,2244.42C1083.3,2245.54 1081.23,2246.7 1079.17,2247.9C1073.74,2251.08 1068.48,2254.55 1063.41,2258.29C1063.11,2258.52 1062.8,2258.74 1062.5,2258.97C1061.84,2259.46 1061.19,2259.96 1060.53,2260.47C1059.6,2261.19 1058.67,2261.92 1057.75,2262.66C1056.72,2263.49 1055.7,2264.33 1054.69,2265.18L1054.03,2265.73C1053.82,2265.92 1053.6,2266.1 1053.38,2266.29L1052.98,2266.64C1052.2,2267.31 1051.42,2267.99 1050.66,2268.68C1046.52,2272.38 1042.55,2276.28 1038.74,2280.39C1038.36,2280.8 1037.97,2281.22 1037.59,2281.64C1036.93,2282.37 1036.27,2283.1 1035.62,2283.84L1021.41,2299.98C1021.19,2300.02 1020.98,2300.07 1020.76,2300.12C942.785,2317.72 872.725,2303.55 833.385,2262.24C797.025,2224.07 788.845,2164.18 809.715,2089.05C818.675,2056.78 840.205,2030.17 868.785,2016.06C888.842,2006.15 909.129,2003.77 929.303,2008.91ZM1477.04,1934.84L1517.01,2062.8C1522.23,2079.53 1536.79,2092.05 1554.1,2094.72L1706.7,2118.28C1714.99,2119.55 1721.77,2125.61 1723.95,2133.7L1748.23,2223.13L1758.62,2261.43C1666.22,2276.91 1566.8,2290.28 1458.63,2301.8C1456.27,2302.05 1453.9,2302.18 1451.57,2302.18C1433.85,2302.18 1417.17,2295.1 1404.88,2283.16L1404.41,2282.69C1403.94,2282.23 1403.49,2281.77 1403.04,2281.3L1402.31,2280.52L1401.5,2279.62L1400.82,2278.85L1400.11,2278.01L1399.42,2277.17L1398.77,2276.35L1398.34,2275.8C1397.91,2275.23 1397.48,2274.65 1397.06,2274.07L1396.43,2273.17L1396.03,2272.59C1395.43,2271.69 1394.85,2270.78 1394.28,2269.85L1393.91,2269.22L1393.72,2268.91C1393.18,2267.97 1392.65,2267.02 1392.14,2266.05L1391.8,2265.38L1391.48,2264.74L1391.32,2264.41C1391,2263.76 1390.69,2263.09 1390.39,2262.42L1389.93,2261.37L1389.52,2260.36L1389.25,2259.69L1388.98,2259L1388.57,2257.89L1388.2,2256.84L1387.85,2255.8L1387.63,2255.11L1387.53,2254.76L1373.92,2210.45L1373.92,2210.44L1316.37,2022.94C1314.99,2011.2 1315.15,1996.46 1321.16,1984.19C1326.31,1973.73 1334.95,1966.52 1347.62,1962.16C1392.58,1952.01 1435.69,1942.91 1477.04,1934.84ZM1863.66,1899.6L1864.36,1900.2L1864.99,1900.76L1865.6,1901.32L1866.22,1901.91L1866.86,1902.54L1867.45,1903.14C1870.54,1906.36 1873.21,1910.02 1875.35,1914.07C1884.98,1932.32 1893.58,1953.05 1901.05,1975.09L1901.5,1976.42L1901.94,1977.74L1902.38,1979.06L1902.82,1980.38L1903.26,1981.71L1903.69,1983.04L1904.12,1984.38L1904.54,1985.71L1904.97,1987.05L1905.39,1988.4L1905.81,1989.74L1906.22,1991.09L1906.63,1992.45L1907.05,1993.8L1907.45,1995.16L1907.86,1996.52L1908.26,1997.88L1908.66,1999.24L1909.06,2000.61L1909.69,2002.82L1910.24,2004.73L1910.83,2006.86L1911.39,2008.86L1911.95,2010.91L1912.31,2012.27L1912.68,2013.62L1913.04,2014.98L1913.4,2016.33L1913.75,2017.69L1914.1,2019.05L1914.45,2020.41L1914.8,2021.77L1915.14,2023.13L1915.49,2024.5L1915.83,2025.86L1916.16,2027.23L1916.5,2028.59L1916.83,2029.96L1917.15,2031.33L1917.48,2032.69L1917.8,2034.06L1918.12,2035.43L1918.44,2036.8C1935.25,2109.74 1940.55,2185.16 1932,2227.76L1931.92,2228.16C1884.38,2238.56 1834.98,2248.22 1783.39,2257.2L1770.59,2210.06L1756.64,2158.68L1756.64,2158.68L1748.09,2127.16C1743.31,2109.53 1728.56,2096.35 1710.52,2093.57L1557.9,2070.01C1549.95,2068.78 1543.27,2063.03 1540.87,2055.35L1501.75,1930.1C1625.94,1906.7 1734.14,1892.87 1829.68,1888.09C1842.21,1887.49 1854.34,1891.77 1863.66,1899.6ZM1959.99,2218.81C1964.28,2185.43 1962.53,2141.91 1956.04,2096.26C1946.2,2027.07 1925.51,1952.99 1898.51,1901.85C1896.46,1897.97 1894.1,1894.32 1891.46,1890.93L1890.68,1889.95L1890.26,1889.43L1889.83,1888.91L1889.4,1888.4L1888.97,1887.9L1888.54,1887.4L1888.11,1886.91L1887.67,1886.43L1887.06,1885.78L1886.36,1885.03L1885.9,1884.55L1885.43,1884.08L1884.96,1883.61L1884.49,1883.15L1884.01,1882.69L1883.53,1882.24L1883.04,1881.79L1882.56,1881.34L1882.07,1880.9L1881.58,1880.47C1880.42,1879.46 1879.24,1878.49 1878.03,1877.56L1877.47,1877.13L1876.93,1876.73L1876.38,1876.33L1875.84,1875.93L1875.29,1875.54L1874.73,1875.15L1874.16,1874.77L1873.17,1874.11L1872.07,1873.4L1871.79,1873.23C1859.02,1865.29 1843.92,1861.16 1828.38,1861.93C1693.59,1868.68 1534.22,1893.16 1341.17,1936.78C1340.76,1936.87 1340.34,1936.99 1339.92,1937.12C1329.82,1940.5 1321.16,1945.28 1313.99,1951.44L1345.54,1899.15L1345.55,1899.15C1351.87,1888.68 1362.24,1881.04 1374.01,1878.17C1546.59,1836.22 1719.81,1807.94 1888.86,1794.15C1890.8,1794 1892.74,1793.91 1894.66,1793.91C1920.38,1793.91 1944.83,1807.77 1958.12,1830.31C1977.06,1862.42 1992.83,1897.42 2005.55,1935.75C1999.59,1940.89 1994.37,1946.92 1990.12,1953.72C1978.26,1972.64 1975,1995.82 1981.15,2017.29L1991.84,2054.51C1998.91,2079.19 2017.25,2098.18 2040.3,2106.74C2041.5,2125.62 2035.69,2144.26 2023.78,2159.55C2004.12,2184.79 1982.7,2204.68 1959.99,2218.81ZM1312.79,1895.37C1306.25,1875.14 1300.32,1854.59 1294.71,1833.93C1286.42,1803.04 1278.78,1771.82 1271.99,1740.53L1271.96,1740.44C1271.39,1737.84 1268.9,1736.04 1266.19,1736.38C1263.33,1736.75 1261.3,1739.37 1261.65,1742.24C1265.69,1774.33 1270.57,1806.18 1276.16,1838.08C1281.38,1867.26 1287.22,1896.38 1294.64,1925.45L1286,1939.78C1274.82,1958.3 1272.05,1980.78 1278.39,2001.46L1311.35,2108.83L1311.35,2108.84L1325.62,2155.34L1333.28,2180.29L1268.89,2195.39C1278.61,2120.19 1268.89,2067.13 1263.38,2045.19C1265.25,2040.62 1265.17,2035.3 1262.76,2030.59C1176.67,1862.61 1135.16,1732.79 1210.8,1651.63C1297.03,1685.39 1390.86,1703.94 1488.93,1703.94C1784.19,1703.94 2033.92,1542.31 2158.9,1299.09C2227.53,1352.5 2315.66,1388.86 2421.18,1407.33C2404.2,1463.52 2342.98,1633.69 2195.28,1754.91C2192.76,1756.99 2190.93,1759.67 2189.89,1762.62L2152.16,1785.89C2150.24,1787.09 2149.22,1789.42 2149.82,1791.74C2150.55,1794.57 2153.45,1796.27 2156.28,1795.53L2193.36,1785.89C2202.36,1816.22 2210.6,1846.1 2218.07,1875.53C2209.45,1875.58 2200.82,1877.03 2192.53,1879.91C2147.43,1895.62 2097.39,1908.33 2043.77,1917.67C2039.79,1918.37 2035.89,1919.36 2032.11,1920.63C2019.06,1882.5 2003.05,1847.43 1983.96,1815.06C1963.87,1781.01 1925.57,1761.04 1886.41,1764.26C1715.81,1778.16 1541.02,1806.68 1366.91,1849.03C1347.43,1853.76 1330.28,1866.38 1319.86,1883.66L1312.79,1895.37ZM2289.42,2045.49C2304.6,2026.89 2310.99,2001.83 2305.12,1977.23L2295.36,1936.18C2291.14,1918.45 2280.89,1902.8 2266.6,1891.82L2266.6,1891.82C2264.51,1890.22 2262.34,1888.72 2260.09,1887.32L2258.97,1886.64L2257.68,1885.89L2256.71,1885.35C2247.79,1849.16 2237.71,1812.22 2226.47,1774.45C2261.73,1744.42 2292.07,1712.01 2318.07,1679.27L2374.84,1657.87C2390.03,1652.13 2406.8,1653.55 2420.8,1661.76L2447.84,1677.59C2452.32,1680.21 2456.52,1683.22 2460.42,1686.58C2450.77,1686.74 2441.21,1688.17 2432.01,1690.62C2429.33,1691.3 2426.68,1692.09 2424.08,1693.04L2420.16,1694.38L2416.64,1695.86L2402.68,1701.81L2374.78,1713.7L2346.91,1725.6C2345.74,1726.12 2344.64,1726.54 2343.39,1727.13L2339.55,1729.04C2336.99,1730.29 2334.61,1731.91 2332.2,1733.42C2327.55,1736.73 2323.2,1740.41 2319.43,1744.67C2304.24,1761.53 2297.91,1785.62 2303.03,1807.27L2361.32,2041.18L2315.87,1804.7C2312.66,1786.89 2318.95,1768.2 2331.37,1755.88C2334.43,1752.77 2337.93,1750.14 2341.6,1747.82C2343.51,1746.79 2345.34,1745.63 2347.35,1744.81L2350.33,1743.53C2351.37,1743.09 2352.64,1742.66 2353.78,1742.24L2381.91,1732.01L2410.01,1721.78L2424.05,1716.66L2427.53,1715.42L2430.8,1714.51C2432.97,1713.84 2435.16,1713.31 2437.37,1712.89C2446.16,1711.08 2455.14,1710.38 2463.95,1711.12C2468.37,1711.44 2472.72,1712.17 2476.95,1713.13C2478.6,1713.52 2480.24,1713.95 2481.83,1714.44C2484.51,1720 2486.61,1725.85 2488.05,1731.91L2550.47,1994.77C2557.99,2026.4 2542.53,2059.55 2513.68,2073.57C2508.27,2076.2 2502.84,2078.73 2497.39,2081.17L2496.49,2081.58L2494.2,2082.59L2492.61,2083.29L2490.8,2084.08L2488.92,2084.89L2487.2,2085.62L2485.56,2086.31L2483.48,2087.18C2480.55,2088.4 2477.62,2089.59 2474.68,2090.74L2474.68,2090.75C2443.62,2103.04 2412.16,2112.19 2380.74,2118.07C2363.53,2121.3 2345.85,2119.64 2329.59,2113.26C2313.34,2106.9 2303.35,2102.86 2297.22,2100.31C2294.95,2082.22 2292.36,2063.95 2289.42,2045.49ZM2066.26,2111.72L2066.32,2111.7L2066.23,2111.7L2066.26,2111.72ZM2218.64,1903C2212.93,1903 2207.18,1903.97 2201.59,1905.92C2201.56,1905.93 2201.54,1905.94 2201.52,1905.95C2155.03,1922.13 2103.55,1935.2 2048.49,1944.81C2034.01,1947.33 2021.23,1955.9 2013.46,1968.33C2005.62,1980.83 2003.56,1995.52 2007.62,2009.69L2018.31,2046.9C2024.82,2069.61 2045.89,2084.93 2069.85,2084.16C2130.51,2082.2 2190.7,2068.28 2248.68,2042.8C2271.64,2032.72 2284.11,2007.82 2278.34,1983.61L2268.57,1942.56C2265.16,1928.23 2256.16,1916.44 2243.26,1909.38C2235.65,1905.21 2227.39,1903.06 2219.04,1903L2218.64,1903ZM1775.41,2072.85C1766.18,2072.85 1756.9,2070.82 1748.07,2066.78C1731.68,2059.3 1718.78,2045.76 1711.7,2028.63C1697,1993 1712.41,1952.68 1746.1,1938.78C1779.77,1924.88 1819.14,1942.56 1833.87,1978.21C1848.58,2013.85 1833.15,2054.16 1799.48,2068.05C1791.74,2071.26 1783.6,2072.85 1775.41,2072.85ZM1770.11,1959.03C1765.24,1959.03 1760.34,1959.94 1755.63,1961.88C1734.69,1970.54 1725.36,1996.19 1734.82,2019.1C1739.45,2030.35 1747.86,2039.19 1758.45,2044.05C1768.77,2048.74 1779.94,2049.07 1789.93,2044.96C1810.87,2036.31 1820.2,2010.64 1810.76,1987.75C1803.42,1969.99 1786.9,1959.03 1770.11,1959.03ZM2130.69,1145.56C2123.01,1142.86 2115.54,1139.31 2108.34,1134.95C2053.3,1356.19 1890.21,1476.12 1760.67,1538.22C1637.67,1597.19 1493.6,1627.2 1358.2,1627.2C1316.25,1627.2 1275.12,1624.32 1235.72,1618.53C1235.95,1620.24 1235.93,1621.96 1235.67,1623.65C1297.38,1646.55 1362.99,1661.33 1431.2,1666.69C1794.62,1652.25 2053.88,1459.38 2130.69,1145.56ZM1089.09,1549.47C958.532,1463.68 856.987,1337.15 802.695,1188.11C760.255,929.797 842.255,723.844 1046.61,575.723C1190.71,471.264 1378.62,429.648 1562.1,461.538C1785.61,500.38 1937.69,603.289 2014.35,767.453C2002.2,807.125 1997.82,855.439 2002.14,908.375C2009.74,1001.33 2040.4,1075.45 2084.16,1116.49C2034.63,1334.82 1875,1452.59 1748.66,1513.15C1538.96,1613.7 1266.93,1627.72 1089.09,1549.47ZM1918.96,1528.54C2038.15,1434.7 2120.3,1305.09 2157.86,1151.44C2160.99,1151.71 2164.16,1151.85 2167.35,1151.85C2169.12,1151.85 2170.91,1151.81 2172.7,1151.73C2177.36,1151.5 2181.97,1151.02 2186.52,1150.27C2185.95,1153.55 2185.35,1156.83 2184.72,1160.11C2137.17,1309.37 2042.82,1437.94 1918.96,1528.54ZM2244.06,911.922C2243.2,912.311 2242.3,912.622 2241.36,912.845C2222.2,917.395 2205.12,936.375 2197.84,961.205C2188.59,992.775 2197.1,1025.2 2221.18,1050.17C2223.97,1053.06 2225.47,1056.91 2225.39,1060.91C2225.14,1072.64 2224.55,1084.37 2223.63,1096.12C2224.8,1095.19 2225.96,1094.24 2227.11,1093.26L2235.24,1130.92C2230.07,1134.33 2224.77,1137.34 2219.34,1139.92C2218.75,1142.23 2218.14,1144.53 2217.53,1146.81C2210.53,1190.19 2198.9,1234.1 2182.47,1279.36C2248.48,1329.24 2330.5,1361.87 2432.51,1378.84C2432.72,1378.68 2432.92,1378.52 2433.13,1378.37C2453.7,1310.7 2470.51,1232.87 2483.14,1146.75C2485.35,1131.73 2491.55,1117.06 2501.09,1104.32C2534.12,1060.19 2552.76,977.415 2522.22,910.865C2496.53,854.885 2441.16,822.485 2362.11,817.145C2337.33,815.505 2313.49,821.535 2295.01,834.195C2294.44,834.591 2293.87,834.991 2293.3,835.396L2280.49,846.296C2270.31,856.602 2262.66,869.061 2257.41,883.889C2280.09,884.815 2302.39,891.052 2322.45,901.585C2328.97,905.085 2335.28,908.995 2341.34,913.375C2347.3,917.895 2352.99,922.865 2358.26,928.385C2368.7,939.445 2377.68,953.205 2381.26,969.885C2382.99,978.165 2383.16,987.145 2381.12,995.665C2380.89,996.695 2380.62,997.72 2380.32,998.737C2387.76,1002.79 2395.66,1005.92 2403.78,1007.85C2409.41,1009.22 2415.18,1009.93 2420.88,1009.93C2426.41,1009.93 2431.89,1009.26 2437.16,1007.88L2438.09,1007.62L2438.55,1007.5C2449.64,1004.32 2459.64,997.735 2467.35,988.545C2475.1,979.375 2480.51,967.875 2484.26,955.675L2484.34,955.425C2484.8,953.895 2485.7,952.613 2486.84,951.667L2487.21,951.382L2487.51,951.171C2488.78,950.333 2490.28,949.865 2491.85,949.865C2492.22,949.865 2492.59,949.894 2492.96,949.95L2493,949.956C2493.38,950.013 2493.77,950.099 2494.14,950.215C2498.12,951.435 2500.43,955.545 2499.49,959.535C2496.18,973.555 2490.82,987.595 2481.74,999.875C2472.8,1012.14 2459.85,1022.15 2445.05,1027.4L2443.95,1027.79C2442.61,1028.26 2441.25,1028.69 2439.88,1029.08L2438.76,1029.39L2437.85,1029.63C2425.16,1032.92 2411.83,1033.17 2399.22,1030.97L2398.72,1030.89C2393.12,1029.91 2387.64,1028.51 2382.29,1026.74C2377.53,1025.16 2372.87,1023.29 2368.34,1021.17C2359.93,1032.41 2346.28,1043.12 2330.24,1045.25C2321.62,1046.66 2313.01,1045 2305.43,1042.33C2297.68,1039.63 2291.3,1034.95 2285.53,1030.1C2274.45,1019.76 2266.62,1007.18 2261.95,993.855C2260.99,991.115 2262.43,988.115 2265.16,987.145C2267.53,986.315 2270.11,987.285 2271.39,989.335L2271.43,989.425C2278.16,1000.28 2286.47,1009.9 2296.3,1016.37C2306.01,1022.84 2317.14,1025.71 2326.3,1023.23C2330.84,1021.82 2335.2,1019.98 2338.87,1016.39C2339.88,1015.72 2340.72,1014.7 2341.58,1013.72L2344.18,1010.83C2345.7,1008.43 2347.53,1006.2 2348.97,1003.83C2349.65,1002.81 2350.26,1001.8 2350.81,1000.8L2350.82,1000.78C2351.12,999.535 2351.6,998.315 2352.28,997.155C2352.49,996.795 2352.72,996.455 2352.95,996.125L2352.96,996.119C2355.4,989.552 2355.49,982.935 2353.8,976.045C2351.35,966.495 2344.97,957.105 2336.97,948.935C2328.83,940.795 2318.97,933.895 2308.39,928.255C2288.62,917.948 2266.28,912.09 2244.06,911.922ZM961.715,1329.65C958.195,1329.65 954.625,1328.09 952.165,1324.54C908.705,1262.02 880.535,1194.37 869.155,1121.12C838.945,926.775 930.055,731.565 1098.23,629.595C1179.85,580.094 1270.9,554.725 1358.57,554.725C1407.38,554.725 1455.14,562.598 1499.61,578.553C1510.75,582.548 1509.88,598.455 1498.37,601.165C1096.54,695.805 931.905,940.805 973.555,1316.59C974.425,1324.43 968.155,1329.65 961.715,1329.65ZM2166.41,696.784C2118.21,729.862 2093.26,807.731 2101.43,907.775C2109.52,1006.62 2133.7,1084.23 2180.89,1115.71C2177.64,1116.25 2174.35,1116.61 2171.03,1116.77C2094.68,1120.38 2045.83,1013.25 2037.03,905.525C2030.46,825.035 2045.08,757.945 2077.16,721.435C2092.93,703.485 2112.45,693.825 2135.2,692.745C2136.61,692.675 2137.99,692.645 2139.39,692.645C2148.54,692.645 2157.58,694.069 2166.41,696.784ZM2270.34,815.169C2248.25,832.81 2233.13,856.75 2225.26,886.525C2199.74,896.445 2178.22,921.455 2169.05,952.765C2157.45,992.355 2167.24,1034.33 2195.24,1066.27C2194.96,1075.07 2194.48,1083.88 2193.8,1092.7C2154.52,1065.6 2135.03,994.385 2127.76,905.625C2119.55,804.968 2146.01,730.385 2195.69,710.924C2226.86,731.701 2253.5,768.815 2270.34,815.169ZM2059.62,689.266C2056.6,692.103 2053.68,695.124 2050.87,698.325C2042.22,708.17 2034.61,719.695 2028.12,732.668C1944.32,573.169 1789.34,472.825 1566.86,434.154C1376.01,400.991 1180.44,444.394 1030.3,553.222C921.895,631.795 845.555,727.885 803.405,838.805C780.542,898.957 767.674,963.638 764.836,1032.27C760.918,1001.73 758.895,970.555 758.895,938.915C758.895,885.336 764.697,833.086 775.714,782.719C870.956,532.512 1083.04,378.132 1360.17,358.266C1652.72,337.302 1937.76,472.897 2059.62,689.266ZM2163.68,660.215C2153.79,658.158 2143.71,657.312 2133.53,657.785C2115.88,658.626 2099.29,663.24 2084.28,671.376C1955.89,446.903 1660.52,306.347 1358.01,328.066C1222.01,337.817 1095.56,380.835 992.355,452.466C936.861,490.981 888.58,536.96 847.762,590.07C971.749,363.127 1212.66,208.877 1488.93,208.877C1792.83,208.877 2053.96,395.53 2163.68,660.215Z" style="fill:rgb(119,254,255);"/>
            </g>
        </g>
    </g>
</svg>
